<svg width="80" height="80" viewBox="0 0 80 80" fill="none" xmlns="http://www.w3.org/2000/svg">
<rect width="80" height="80" rx="40" fill="url(#paint0_linear_56_51)"/>
<path fill-rule="evenodd" clip-rule="evenodd" d="M23.75 30C23.75 29.0054 24.1451 28.0516 24.8483 27.3483C25.5516 26.6451 26.5054 26.25 27.5 26.25H52.5C53.4946 26.25 54.4484 26.6451 55.1516 27.3483C55.8549 28.0516 56.25 29.0054 56.25 30V38.125C56.25 38.6223 56.4475 39.0992 56.7992 39.4508C57.1508 39.8025 57.6277 40 58.125 40C58.6223 40 59.0992 39.8025 59.4508 39.4508C59.8025 39.0992 60 38.6223 60 38.125V30C60 28.0109 59.2098 26.1032 57.8033 24.6967C56.3968 23.2902 54.4891 22.5 52.5 22.5H27.5C25.5109 22.5 23.6032 23.2902 22.1967 24.6967C20.7902 26.1032 20 28.0109 20 30V58.125C20.0003 58.4956 20.1105 58.8578 20.3165 59.1658C20.5226 59.4739 20.8153 59.7139 21.1577 59.8557C21.5001 59.9975 21.8768 60.0346 22.2403 59.9624C22.6038 59.8902 22.9378 59.7119 23.2 59.45L30.1575 52.5H40.625C41.1223 52.5 41.5992 52.3025 41.9508 51.9508C42.3025 51.5992 42.5 51.1223 42.5 50.625C42.5 50.1277 42.3025 49.6508 41.9508 49.2992C41.5992 48.9475 41.1223 48.75 40.625 48.75H28.6075L28.0575 49.3L23.75 53.6V30ZM52.5 55C52.0027 55 51.5258 54.8025 51.1742 54.4508C50.8225 54.0992 50.625 53.6223 50.625 53.125V49.375H46.875C46.3777 49.375 45.9008 49.1775 45.5492 48.8258C45.1975 48.4742 45 47.9973 45 47.5C45 47.0027 45.1975 46.5258 45.5492 46.1742C45.9008 45.8225 46.3777 45.625 46.875 45.625H50.625V41.875C50.625 41.3777 50.8225 40.9008 51.1742 40.5492C51.5258 40.1975 52.0027 40 52.5 40C52.9973 40 53.4742 40.1975 53.8258 40.5492C54.1775 40.9008 54.375 41.3777 54.375 41.875V45.625H58.125C58.6223 45.625 59.0992 45.8225 59.4508 46.1742C59.8025 46.5258 60 47.0027 60 47.5C60 47.9973 59.8025 48.4742 59.4508 48.8258C59.0992 49.1775 58.6223 49.375 58.125 49.375H54.375V53.125C54.375 53.6223 54.1775 54.0992 53.8258 54.4508C53.4742 54.8025 52.9973 55 52.5 55Z" fill="white"/>
<defs>
<linearGradient id="paint0_linear_56_51" x1="0" y1="40" x2="80" y2="40" gradientUnits="userSpaceOnUse">
<stop stop-color="#4A00B2"/>
<stop offset="1" stop-color="#3300FF"/>
</linearGradient>
</defs>
</svg>
