<svg width="48" height="48" viewBox="0 0 48 48" fill="none" xmlns="http://www.w3.org/2000/svg">
<rect width="48" height="48" rx="24" fill="#F0F0F0"/>
<g clip-path="url(#clip0_79_20)">
<path fill-rule="evenodd" clip-rule="evenodd" d="M14.25 17.4537C14.25 16.837 14.4871 16.2456 14.909 15.8096C15.331 15.3735 15.9033 15.1286 16.5 15.1286H31.5C32.0967 15.1286 32.669 15.3735 33.091 15.8096C33.5129 16.2456 33.75 16.837 33.75 17.4537V22.4914C33.75 22.7997 33.8685 23.0954 34.0795 23.3134C34.2905 23.5315 34.5766 23.6539 34.875 23.6539C35.1734 23.6539 35.4595 23.5315 35.6705 23.3134C35.8815 23.0954 36 22.7997 36 22.4914V17.4537C36 16.2204 35.5259 15.0376 34.682 14.1655C33.8381 13.2934 32.6935 12.8035 31.5 12.8035H16.5C15.3065 12.8035 14.1619 13.2934 13.318 14.1655C12.4741 15.0376 12 16.2204 12 17.4537V34.8919C12.0002 35.1217 12.0663 35.3463 12.1899 35.5373C12.3135 35.7283 12.4892 35.8771 12.6946 35.965C12.9001 36.0529 13.1261 36.076 13.3442 36.0312C13.5623 35.9864 13.7627 35.8759 13.92 35.7135L18.0945 31.4043H24.375C24.6734 31.4043 24.9595 31.2818 25.1705 31.0638C25.3815 30.8458 25.5 30.5501 25.5 30.2417C25.5 29.9334 25.3815 29.6377 25.1705 29.4197C24.9595 29.2017 24.6734 29.0792 24.375 29.0792H17.1645L16.8345 29.4202L14.25 32.0863V17.4537ZM31.5 32.9544C31.2016 32.9544 30.9155 32.8319 30.7045 32.6138C30.4935 32.3958 30.375 32.1001 30.375 31.7918V29.4667H28.125C27.8266 29.4667 27.5405 29.3442 27.3295 29.1262C27.1185 28.9082 27 28.6125 27 28.3041C27 27.9958 27.1185 27.7001 27.3295 27.4821C27.5405 27.2641 27.8266 27.1416 28.125 27.1416H30.375V24.8165C30.375 24.5082 30.4935 24.2125 30.7045 23.9944C30.9155 23.7764 31.2016 23.6539 31.5 23.6539C31.7984 23.6539 32.0845 23.7764 32.2955 23.9944C32.5065 24.2125 32.625 24.5082 32.625 24.8165V27.1416H34.875C35.1734 27.1416 35.4595 27.2641 35.6705 27.4821C35.8815 27.7001 36 27.9958 36 28.3041C36 28.6125 35.8815 28.9082 35.6705 29.1262C35.4595 29.3442 35.1734 29.4667 34.875 29.4667H32.625V31.7918C32.625 32.1001 32.5065 32.3958 32.2955 32.6138C32.0845 32.8319 31.7984 32.9544 31.5 32.9544Z" fill="#1E1E1E"/>
</g>
<defs>
<clipPath id="clip0_79_20">
<rect width="24" height="24" fill="white" transform="translate(12 12)"/>
</clipPath>
</defs>
</svg>
