<svg width="24" height="24" viewBox="0 0 24 24" fill="none" xmlns="http://www.w3.org/2000/svg">
<path d="M13.2688 3.66881C13.5689 3.36885 13.9758 3.20035 14.4 3.20035C14.8243 3.20035 15.2312 3.36885 15.5312 3.66881L22.7312 10.8688C23.0312 11.1689 23.1997 11.5757 23.1997 12C23.1997 12.4243 23.0312 12.8312 22.7312 13.1312L15.5312 20.3312C15.2295 20.6227 14.8253 20.7839 14.4058 20.7803C13.9863 20.7766 13.585 20.6084 13.2883 20.3117C12.9917 20.0151 12.8234 19.6138 12.8198 19.1942C12.8161 18.7747 12.9774 18.3706 13.2688 18.0688L17.6 13.6H2.40005C1.9757 13.6 1.56874 13.4314 1.26868 13.1314C0.96862 12.8313 0.800049 12.4244 0.800049 12C0.800049 11.5757 0.96862 11.1687 1.26868 10.8686C1.56874 10.5686 1.9757 10.4 2.40005 10.4H17.6L13.2688 5.93121C12.9689 5.63116 12.8004 5.22427 12.8004 4.80001C12.8004 4.37574 12.9689 3.96885 13.2688 3.66881Z" fill="#1E1E1E"/>
</svg>
